<svg width="103" height="41" viewBox="0 0 103 41" fill="none" xmlns="http://www.w3.org/2000/svg">
<g clip-path="url(#clip0)">
<path d="M7.83727 30.551C8.83979 32.246 9.75963 34.4061 10.2764 36.3181C10.5348 37.2793 10.6898 38.1785 10.6898 38.9226C10.6898 39.6254 10.6278 40.3179 10.5244 41L14.0901 35.3156C14.3898 34.8919 14.6482 34.4784 14.8859 34.0547L16.7463 31.0885C20.436 25.2904 16.4776 18.6758 16.0125 17.942C16.0125 17.942 10.3074 8.49559 10.2867 8.46458C9.40823 7.02798 8.78811 5.73607 8.36437 4.57852C7.74425 2.85253 8.168 1.67431 8.6951 0.940509C9.24286 0.289387 9.72862 0 9.72862 0C6.21463 0.857827 5.48083 4.15478 5.48083 4.15478C3.98221 8.39224 6.52469 12.9914 7.08279 13.9113L8.57107 16.2057L11.8163 21.2493C11.9507 21.4767 12.0851 21.7247 12.2298 22.0245C13.0876 23.4817 13.532 25.1457 13.532 26.8407C13.532 27.7709 13.3976 28.701 13.1289 29.6002L12.6225 31.2745C12.6225 31.2745 12.5605 30.8611 12.4985 30.4167C12.4365 29.8379 12.3434 29.2591 12.2091 28.6804C12.0644 28.0602 11.8577 27.4608 11.5993 26.8717C11.5786 26.82 11.558 26.7787 11.5373 26.727C11.496 26.634 11.4546 26.5513 11.4133 26.4583C11.3616 26.3549 11.3099 26.2516 11.2479 26.1482C11.2272 26.1069 11.2066 26.0655 11.1756 26.0242C11.1032 25.9002 11.0205 25.7658 10.9482 25.6418L5.6772 17.2909C5.59452 17.1669 5.05708 16.278 5.05708 16.278C3.72383 14.025 3.05204 12.0819 2.74198 10.511C2.60762 9.8185 2.69031 9.10537 3.03137 8.48525C3.11405 8.31989 3.1864 8.23721 3.1864 8.23721C1.49141 9.4361 0.93331 10.759 0.93331 10.759C0.871298 10.8727 0.809287 10.9864 0.75761 11.1104C-1.35078 15.5339 1.7498 20.7532 2.32857 21.7351C2.35958 21.7971 6.72106 28.67 7.83727 30.551Z" fill="#DA5545"/>
<path d="M21.4571 27.5435L21.6328 27.2644L22.6043 25.7555L23.3381 24.6083C24.8677 21.9211 24.8367 19.7921 23.3691 17.725L21.9842 15.782C21.9842 15.782 20.6509 14.0146 20.2995 13.0741C19.8861 11.9166 19.9068 11.1208 20.1238 10.573C20.1342 10.5317 20.1548 10.5007 20.1755 10.4696C20.1858 10.449 20.1962 10.4283 20.1962 10.4283C20.6716 9.47746 21.7568 9.39478 21.7568 9.39478C20.0618 8.79533 17.5193 9.38444 16.8475 11.7926C16.0724 14.5521 17.0336 16.7225 18.8009 19.3166L19.8964 20.8876C20.0308 21.0943 20.1342 21.301 20.2272 21.5284C21.8705 25.4144 18.4288 32.246 18.4288 32.246L18.5012 32.1427C18.5115 32.1324 18.5115 32.122 18.5218 32.1014L18.5942 31.998C18.6252 31.9463 18.6665 31.874 18.7182 31.812L18.9663 31.4192C18.9973 31.3675 19.0283 31.3159 19.0696 31.2642L19.1523 31.1402C19.1833 31.0885 19.2143 31.0472 19.2453 30.9955L19.4003 30.7474C19.4624 30.6441 19.5347 30.5407 19.6071 30.4374L20.3202 29.3418L20.3615 29.2798L21.2917 27.8329C21.3434 27.7192 21.3951 27.6262 21.4571 27.5435Z" fill="#DA5545"/>
<path d="M51.5224 30.768C52.0081 30.9954 52.5352 31.0988 53.083 31.0988C53.6721 31.0988 54.1785 31.0264 54.5816 30.8921C54.9847 30.7474 55.3361 30.5717 55.6048 30.3546C55.8735 30.1376 56.0906 29.8999 56.2353 29.6622C56.38 29.4141 56.4833 29.1868 56.5557 28.9594C56.628 28.7423 56.6693 28.546 56.6797 28.3909C56.7004 28.1739 56.7004 28.1326 56.7004 28.1326C56.7004 27.7088 56.6383 27.3367 56.5143 27.0267C56.3903 26.7166 56.2249 26.4582 56.0389 26.2412L56.0286 26.2309C55.8425 26.0138 55.6255 25.8485 55.3878 25.7244C55.1604 25.6004 54.9227 25.5074 54.7056 25.4247C54.4886 25.3524 54.2819 25.3007 54.1062 25.2697C53.9305 25.249 53.8168 25.2283 53.7548 25.218C53.4757 25.1663 53.238 25.1147 53.0107 25.0837C52.7936 25.0423 52.6179 24.9906 52.4732 24.9183C52.3285 24.8459 52.2252 24.7529 52.1425 24.6186C52.0598 24.4945 52.0185 24.3085 52.0185 24.0708C52.0185 23.7504 52.1528 23.492 52.4112 23.3163C52.6799 23.1303 53.052 23.0373 53.5378 23.0373C53.7755 23.0476 53.9925 23.0683 54.1992 23.1096C54.3749 23.151 54.5506 23.213 54.716 23.306C54.8813 23.3887 55.0054 23.5024 55.0984 23.6574L55.1397 23.7297L56.628 22.6135L56.5763 22.5515C56.2249 22.1588 55.8012 21.8487 55.3051 21.6213C54.809 21.394 54.2819 21.2803 53.7341 21.2803C53.145 21.2803 52.6386 21.3423 52.2355 21.4766C51.8324 21.611 51.481 21.7764 51.2123 21.9727C50.9436 22.1691 50.7266 22.3965 50.5819 22.6342C50.4372 22.8719 50.3235 23.0993 50.2511 23.2956C50.1788 23.5024 50.1374 23.6781 50.1271 23.8227C50.1064 23.9984 50.1064 24.0605 50.1064 24.0708C50.1064 24.4429 50.1685 24.7839 50.2821 25.0526C50.3958 25.3317 50.5509 25.5694 50.7266 25.7658C50.9023 25.9621 51.109 26.1275 51.326 26.2619C51.543 26.3859 51.7601 26.4892 51.9565 26.5719C52.1528 26.6546 52.3389 26.7063 52.5146 26.7476C52.7316 26.7993 52.8246 26.8096 52.8556 26.8096C53.1243 26.8613 53.3724 26.913 53.6101 26.9647C53.8375 27.0163 54.0442 27.0887 54.2095 27.192C54.3852 27.2851 54.5093 27.3988 54.6126 27.5538C54.716 27.6985 54.7573 27.8948 54.7573 28.1222C54.7573 28.4426 54.6333 28.7217 54.3646 28.9594C54.0959 29.1971 53.7238 29.3211 53.238 29.3211C52.9797 29.3211 52.7419 29.2901 52.5559 29.2281C52.3699 29.1661 52.2045 29.0937 52.0805 29.0214C51.9565 28.949 51.8634 28.8767 51.8014 28.8147L51.6464 28.6597L50.1891 29.7655L50.2408 29.8275C50.6129 30.2409 51.0366 30.551 51.5224 30.768Z" fill="#333333"/>
<path d="M68.0071 24.9078V29.817L69.8158 31.202V21.1768L64.7515 25.0215L59.6769 21.1768V31.202L61.4959 29.817V24.9078L64.7412 27.3676L68.0071 24.9078Z" fill="#333333"/>
<path d="M47.7086 16.3608L42.479 27.2955L37.2287 16.3608H34.9136L42.479 31.471L50.0237 16.3608H47.7086Z" fill="#333333"/>
<path d="M102.889 21.3008H94.4343V23.0474H97.7726V31.1089H99.5813V23.0474H102.889V21.3008Z" fill="#333333"/>
<path d="M76.9678 25.1356L78.4664 28.2155H75.4692L76.9678 25.1356ZM79.2312 29.7761L79.8823 31.1094H82.0734L76.9678 21.1875L71.8828 31.1094H74.0739L74.725 29.7761H79.2312Z" fill="#333333"/>
<path d="M86.1662 25.404V23.0579H89.7938C89.9902 23.0682 90.1556 23.1095 90.3106 23.2026C90.4346 23.2749 90.5586 23.3886 90.662 23.5436C90.7653 23.6986 90.817 23.926 90.817 24.2154C90.817 24.5151 90.7653 24.7425 90.662 24.9079C90.5483 25.0732 90.4346 25.1869 90.3003 25.2593C90.1556 25.342 89.9902 25.3936 89.8042 25.404H86.2902H86.1662ZM90.8584 31.109H92.8737L90.6517 27.1506L90.7964 27.0989C90.8377 27.0886 90.8894 27.0679 90.9514 27.0473H90.9617C91.1788 26.9646 91.4165 26.8199 91.6645 26.6029C91.9126 26.3858 92.1399 26.0861 92.3363 25.7037C92.5327 25.3213 92.636 24.8252 92.636 24.2361C92.636 23.8743 92.5947 23.5436 92.512 23.2646C92.4293 22.9855 92.326 22.7478 92.1916 22.5411C92.0676 22.3344 91.9022 22.1587 91.7369 22.0243C91.5612 21.89 91.3958 21.766 91.2201 21.6626C90.8067 21.4456 90.3313 21.3215 89.8042 21.2905H84.3575V31.109H86.1662V27.1713H88.6569L90.8584 31.109Z" fill="#333333"/>
</g>
<defs>
<clipPath id="clip0">
<rect width="102.867" height="41" fill="white" transform="translate(0.0217285)"/>
</clipPath>
</defs>
</svg>
