<svg width="231" height="92" viewBox="0 0 231 92" fill="none" xmlns="http://www.w3.org/2000/svg">
<path d="M17.5047 68.3514C19.7432 72.1348 21.8166 76.9746 22.9524 81.2466C23.5269 83.399 23.8702 85.4129 23.8702 87.0702C23.8702 88.635 23.7382 90.1867 23.4873 91.7053L31.4574 79.0016C32.1177 78.064 32.7054 77.1199 33.227 76.1691L37.3871 69.5399C45.6345 56.559 36.7796 41.7821 35.7363 40.138C35.7363 40.138 22.9656 19.0159 22.9194 18.9366C20.9978 15.7145 19.6244 12.8225 18.6735 10.254C17.2802 6.39804 18.2245 3.75035 19.4197 2.11287C20.6479 0.660271 21.7308 0 21.7308 0C13.8663 1.928 12.2353 9.28343 12.2353 9.28343H12.242C8.89411 18.7583 14.5927 29.0388 15.8275 31.1054L19.1555 36.249L26.4191 47.5264C26.7295 48.0414 27.02 48.5895 27.3369 49.2629C29.2453 52.5247 30.2556 56.2552 30.2556 60.0452C30.2556 62.1383 29.9452 64.2181 29.3443 66.2188L28.2152 69.9757C28.2152 69.9757 28.0831 69.0447 27.9378 68.0543C27.8058 66.7536 27.6011 65.4594 27.2841 64.1719C26.9474 62.7919 26.5049 61.4384 25.9173 60.1244C25.871 60.0188 25.8182 59.9131 25.772 59.8075C25.6795 59.6028 25.5805 59.4047 25.4814 59.2067C25.3626 58.9756 25.2437 58.7511 25.1183 58.52C25.0654 58.4275 25.0192 58.3417 24.9664 58.2493C24.8013 57.9587 24.6296 57.6682 24.4513 57.3843L12.6514 38.6986C12.4731 38.4081 11.2647 36.4272 11.2647 36.4272C8.2734 31.4026 6.77447 27.0382 6.07453 23.5189C5.77078 21.9739 5.96887 20.3562 6.72164 18.9762C6.91314 18.6197 7.06501 18.415 7.06501 18.415C3.27476 21.1023 2.02674 24.0801 2.02674 24.0801C1.88807 24.3376 1.74941 24.6018 1.62394 24.8725C-3.09077 34.77 3.82943 46.4502 5.14347 48.6357C5.25573 48.7677 15.0087 64.1257 17.5047 68.3514Z" fill="#DA4F46"/>
<path d="M47.9789 61.6039L48.3751 60.9833L50.5476 57.6027L52.1984 55.0342C55.6255 49.0191 55.5594 44.252 52.271 39.6367L49.1741 35.2987C49.1741 35.2987 46.2027 31.337 45.4037 29.244C44.4726 26.6425 44.5254 24.8664 45.0009 23.6449C45.0339 23.559 45.0669 23.4798 45.1065 23.4072C45.1329 23.3477 45.1527 23.3213 45.1527 23.3213C46.2093 21.1887 48.6326 21.017 48.6326 21.017C44.8424 19.6766 39.1504 20.984 37.6383 26.3784C35.9082 32.5519 38.0609 37.4049 42.0096 43.222L44.466 46.7412C44.7565 47.1968 45.0009 47.6722 45.2122 48.174C48.8902 56.8698 41.1974 72.1353 41.1974 72.1353L41.3559 71.891C41.3691 71.8646 41.3889 71.8382 41.4087 71.8052L41.5672 71.5675C41.6464 71.442 41.7389 71.3033 41.8379 71.1383L42.3992 70.2667C42.4718 70.1545 42.5445 70.0356 42.6237 69.9168L42.802 69.6461C42.868 69.5404 42.9407 69.4348 43.0067 69.3225L43.3633 68.7679C43.5085 68.5434 43.6604 68.3057 43.8123 68.068L45.3971 65.6118L45.4895 65.4731L47.5761 62.2312C47.7148 62.0133 47.8469 61.8086 47.9789 61.6039Z" fill="#DA4F46"/>
<path d="M115.233 68.8339C116.329 69.3357 117.504 69.5866 118.726 69.5866C120.04 69.5866 121.169 69.4281 122.087 69.1178C122.998 68.8075 123.764 68.4047 124.372 67.9227C124.979 67.4407 125.448 66.9191 125.778 66.3645C126.095 65.8164 126.339 65.2948 126.505 64.8062C126.67 64.3176 126.762 63.8951 126.795 63.5451C126.841 63.0565 126.841 62.9773 126.841 62.9707C126.841 62.0133 126.703 61.1813 126.412 60.488C126.128 59.8014 125.772 59.2071 125.349 58.7251L125.336 58.7053C124.913 58.2299 124.431 57.847 123.909 57.5762C123.388 57.3055 122.879 57.081 122.391 56.916C121.902 56.7509 121.453 56.6387 121.057 56.5792C120.667 56.5198 120.397 56.4868 120.278 56.467C119.664 56.3481 119.116 56.2491 118.62 56.1633C118.145 56.0774 117.735 55.9586 117.412 55.7935C117.095 55.635 116.851 55.4105 116.666 55.12C116.487 54.8361 116.395 54.4201 116.395 53.8985C116.395 53.1722 116.692 52.6044 117.267 52.2082C117.861 51.7989 118.713 51.5942 119.782 51.5942C120.317 51.614 120.806 51.6668 121.255 51.7592C121.645 51.8517 122.034 51.9969 122.411 52.195C122.78 52.3799 123.058 52.6374 123.256 52.9807L123.355 53.1458L126.676 50.6434L126.557 50.5047C125.778 49.6266 124.821 48.9267 123.718 48.4183C122.615 47.9098 121.433 47.6523 120.212 47.6523C118.898 47.6523 117.768 47.7976 116.857 48.0947C115.946 48.3852 115.18 48.7616 114.573 49.1974C113.965 49.6464 113.49 50.1416 113.153 50.6698C112.823 51.198 112.578 51.6998 112.426 52.162C112.275 52.6242 112.182 53.0204 112.149 53.3505C112.116 53.7401 112.103 53.8787 112.103 53.9051C112.103 54.7503 112.235 55.4898 112.499 56.1104C112.763 56.7311 113.093 57.2659 113.49 57.7149C113.886 58.1573 114.335 58.527 114.837 58.8176C115.325 59.1015 115.801 59.3326 116.25 59.5042C116.699 59.6825 117.115 59.808 117.491 59.8872C117.98 59.9928 118.178 60.0193 118.257 60.0325C118.858 60.1447 119.419 60.2702 119.941 60.389C120.443 60.5079 120.898 60.6795 121.288 60.8908C121.671 61.1021 121.968 61.3662 122.186 61.703C122.404 62.0265 122.516 62.4557 122.516 62.9773C122.516 63.7036 122.226 64.3176 121.625 64.8591C121.03 65.3939 120.185 65.6646 119.109 65.6646C118.521 65.6646 118.006 65.592 117.577 65.4533C117.148 65.3146 116.791 65.1562 116.52 64.9977C116.25 64.8326 116.038 64.6742 115.906 64.5355L115.556 64.179L112.288 66.6418L112.407 66.7738C113.186 67.6388 114.137 68.3387 115.233 68.8339Z" fill="#EDEDE8"/>
<path d="M152.099 55.7069V66.707L156.146 69.7971V47.3809L144.815 55.9776L133.484 47.3809V69.7971L137.532 66.707V55.7069L144.802 61.2202L152.099 55.7069Z" fill="#EDEDE8"/>
<path d="M106.695 36.6055L94.9936 61.0554L83.2597 36.6055H78.0828L94.9936 70.3982L111.865 36.6055H106.695Z" fill="#EDEDE8"/>
<path d="M230.143 47.6465H211.218V51.5553H218.693V69.5874H222.741V51.5553H230.143V47.6465Z" fill="#EDEDE8"/>
<path d="M172.153 56.2228L175.507 63.1029H168.811L172.153 56.2228ZM177.217 66.6023L178.67 69.5868H183.563L172.153 47.4082L160.769 69.5868H165.662L167.108 66.6023H177.217Z" fill="#EDEDE8"/>
<path d="M192.735 56.8375V51.5883H200.844C201.28 51.6081 201.656 51.7138 201.999 51.9184C202.277 52.0703 202.548 52.3278 202.792 52.691C203.03 53.0475 203.148 53.5493 203.148 54.203C203.148 54.8699 203.03 55.3915 202.792 55.748C202.548 56.1112 202.283 56.3621 201.98 56.5338C201.663 56.7252 201.286 56.8309 200.877 56.8507H193.026H192.735V56.8375ZM203.221 69.5874H207.731L202.765 60.7331L203.089 60.6274C203.181 60.5944 203.294 60.5548 203.426 60.5086L203.446 60.502C203.941 60.3237 204.476 59.987 205.024 59.5116C205.585 59.0296 206.087 58.3495 206.529 57.5044C206.978 56.646 207.203 55.5367 207.203 54.2162C207.203 53.3975 207.11 52.6646 206.932 52.0571C206.747 51.4365 206.509 50.895 206.212 50.4394C205.922 49.9839 205.578 49.5943 205.189 49.2708C204.806 48.9604 204.416 48.6897 204.027 48.4718C203.109 47.9832 202.039 47.7059 200.857 47.6465H188.694V69.5874H192.742V60.7727H198.315L203.221 69.5874Z" fill="#EDEDE8"/>
</svg>
